<?xml version="1.0" standalone="no"?><!DOCTYPE svg PUBLIC "-//W3C//DTD SVG 1.1//EN" "http://www.w3.org/Graphics/SVG/1.1/DTD/svg11.dtd"><svg t="1617258986451" class="icon" viewBox="0 0 1024 1024" version="1.1" xmlns="http://www.w3.org/2000/svg" p-id="2080" xmlns:xlink="http://www.w3.org/1999/xlink" width="200" height="200"><defs><style type="text/css"></style></defs><path d="M0 0h1024v1024H0z" fill="#FFFFFF" p-id="2081"></path><path d="M607.232 416.768m-74.112 0a74.112 74.112 0 1 0 148.224 0 74.112 74.112 0 1 0-148.224 0Z" fill="#ABE3FF" p-id="2082"></path><path d="M491.136 532.864m-27.904 0a27.904 27.904 0 1 0 55.808 0 27.904 27.904 0 1 0-55.808 0Z" fill="#ABE3FF" p-id="2083"></path><path d="M439.424 914.432L148.736 908.8A34.432 34.432 0 0 1 115.2 875.264l-5.632-290.048a34.688 34.688 0 0 1 10.24-25.6l440.32-440.32a34.432 34.432 0 0 1 48.896 0l295.168 295.68a34.304 34.304 0 0 1 0 48.896l-440.32 440.32a34.304 34.304 0 0 1-24.448 10.24z m-256-73.856l241.92 4.352 405.504-405.504-246.272-246.272L179.2 598.656z" fill="#0082FD" p-id="2084"></path></svg>